<svg xmlns="http://www.w3.org/2000/svg" width="256" height="286" preserveAspectRatio="xMidYMid"><path fill="#f0bf1a" d="M14.344 80.173H203.55c20.851 0 39.47-9.561 51.963-24.487C229.453 21.835 188.552 0 142.53 0 86.178 0 37.476 32.711 14.344 80.173"/><path fill="#07a5de" d="M187.515 102.444H5.755C2.033 115.165 0 128.607 0 142.53s2.033 27.367 5.755 40.087h181.76c21.825 0 40.087-17.816 40.087-40.087s-17.816-40.086-40.087-40.086"/><path fill="#3ebeb0" d="M256 228.755c-12.414-14.591-30.883-23.868-51.559-23.868H14.345C37.477 252.35 86.179 285.06 142.53 285.06c46.306 0 87.436-22.097 113.47-56.305"/><path fill="#231f20" d="M5.756 102.444A142.47 142.47 0 0 0 .001 142.53c0 13.924 2.032 27.367 5.755 40.087h118.958c3.118-12.026 4.899-25.388 4.899-40.087s-1.781-28.06-4.899-40.086H5.756z"/><path fill="#d7a229" d="M70.82 19.153C46.767 33.406 26.724 54.785 14.253 80.174h105.116c-10.69-24.498-27.615-44.986-48.549-61.021"/><path fill="#019b8f" d="M75.274 268.135c20.488-16.48 36.968-38.305 47.213-63.248H14.253c13.362 26.725 34.742 48.995 61.021 63.248"/></svg>