<svg xmlns="http://www.w3.org/2000/svg" width="500" height="500"><path d="M211.882 130.331c-10.359 3.844-17.64 11.77-21.013 22.875-5.173 17.029 2.981 35.84 18.631 42.983 7.49 3.418 18.134 3.203 25.745-.52 25.233-12.346 25.108-51.527-.205-63.916-5.548-2.715-17.668-3.46-23.158-1.422m1.618 9.681c-4.301.919-6.924 2.515-9.852 5.995-7.069 8.401-2.605 21.828 8.348 25.11 5.889 1.764 10.785.366 15.596-4.453 5.6-5.611 6.566-10.78 3.251-17.39-3.639-7.255-10.24-10.78-17.343-9.262m-61 164.884c-4.313 1.997-7.692 5.298-11.86 11.586l-2.64 3.982.011 23.018c.006 12.66.291 24.714.634 26.786 1.013 6.129 6.245 13.784 11.736 17.171 10.084 6.22 24.578 4.1 32.108-4.697 5.772-6.743 6.511-10.549 6.511-33.514v-20.417l-6.019-8.337c-11.83-16.387-19.864-20.493-30.481-15.578m88.969-.497c-1.667.726-5.155 3.682-7.75 6.569L229 316.216v50.714c0 58.503-.194 57.006 8.528 65.729 11.178 11.178 27.766 11.178 38.944 0 8.555-8.555 8.528-8.379 8.528-56.34v-41.324l-4.036-3.647c-2.22-2.005-6.456-7.066-9.415-11.247-2.958-4.181-6.879-9.041-8.713-10.8-6.13-5.88-14.642-7.832-21.367-4.902m89.552-.283c-6.302 2.514-6.021.583-6.021 41.413 0 40.255.212 42.126 5.554 49.13 6.369 8.351 19.317 11.603 29.224 7.341 2.863-1.231 6.828-4.035 8.811-6.23 6.462-7.153 6.768-8.649 7.194-35.27l.384-24-4.658-3.862c-2.562-2.125-7.714-7.975-11.448-13-3.734-5.026-7.869-10.129-9.188-11.34-5.112-4.691-13.924-6.547-19.852-4.182" fill="#3f4698" fill-rule="evenodd"/><path d="M226.5 53.059c-64.629 9.943-118.74 55.952-140.889 119.791-16.597 47.839-13.302 100.387 9.157 146.026 4.406 8.954 6.444 11.99 9.569 14.253 13.005 9.421 25.664 4.152 35.098-14.609 3.066-6.096 10.424-13.132 15.215-14.549 10.073-2.98 17.31 1.236 28.331 16.503l6.019 8.337.227 20.345.227 20.344.294-19.195.295-19.196 5.083 3.16c10.306 6.407 20.987 3.305 28.775-8.358l4.08-6.11.269 48.849.269 48.85.241-50.642.24-50.642 4.722-5.252c5.159-5.738 9.289-7.964 14.778-7.964 8.077 0 14.123 4.485 23.049 17.101 2.959 4.181 7.195 9.242 9.415 11.247l4.036 3.647.238 41.252.239 41.253.273-40.814c.255-38.228.383-40.781 2.011-40.297 8.005 2.377 13.471 1.199 19.454-4.193 2.256-2.033 6.843-7.966 10.194-13.184l6.091-9.489.488 36.489.488 36.488.512-37.393.512-37.392 2.636-1.968c3.359-2.507 10.56-3.333 15.331-1.758 5.133 1.694 9.56 5.851 16.57 15.562 12.407 17.187 22.472 21.891 34.039 15.91 12.519-6.474 26.037-38.701 30.524-72.766 2.179-16.548 1.471-46.636-1.465-62.195-13.902-73.689-67.785-130.247-138.74-145.631-7.975-1.729-13.969-2.202-30.895-2.439-11.55-.162-23.7.121-27 .629m6.257 49.906c-35.468 6.485-64.155 36.04-72.346 74.535-2.125 9.985-1.897 30.667.463 42.018 6.232 29.975 24.628 49.067 54.626 56.694 8.046 2.045 11.279 2.282 30.5 2.235 25.032-.062 30.929-1.202 47-9.09 7.631-3.745 10.989-6.157 17.069-12.26 8.791-8.825 12.651-15.16 16.823-27.618 7.461-22.275 6.407-50.339-2.666-70.979-11.665-26.535-33.371-46.471-58.226-53.477-8.424-2.374-25.672-3.442-33.243-2.058m-13.007 25.741c1.238.238 3.262.238 4.5 0 1.238-.239.225-.434-2.25-.434s-3.488.195-2.25.434m-4.988 43.001c1.244.239 3.044.23 4-.02s-.062-.446-2.262-.435c-2.2.011-2.982.216-1.738.455M199 189.5c1.866 1.925 3.617 3.5 3.892 3.5.275 0-1.026-1.575-2.892-3.5-1.866-1.925-3.617-3.5-3.892-3.5-.275 0 1.026 1.575 2.892 3.5m-59.996 185.083c.004 1.123 3.779 7.417 4.448 7.417.264 0-.486-1.687-1.666-3.75-2.645-4.62-2.787-4.806-2.782-3.667M375.232 382c0 1.925.206 2.712.457 1.75.252-.962.252-2.538 0-3.5-.251-.962-.457-.175-.457 1.75m-214.464 9.725c1.797.222 4.497.218 6-.01 1.503-.229.032-.411-3.268-.405-3.3.005-4.529.192-2.732.415m207.796 4.058c-3.525 4.225-3.595 4.404-.664 1.717 2.776-2.546 5.82-6.575 4.885-6.467-.157.018-2.056 2.155-4.221 4.75m-19.802 8.924c1.244.239 3.044.23 4-.02s-.062-.446-2.262-.435c-2.2.011-2.982.216-1.738.455M234 430.313c0 .172 1.463 1.635 3.25 3.25l3.25 2.937-2.937-3.25c-2.738-3.029-3.563-3.71-3.563-2.937m42.437 2.937-2.937 3.25 3.25-2.937c3.029-2.738 3.71-3.563 2.937-3.563-.172 0-1.635 1.462-3.25 3.25m-21.187 8.439c.962.252 2.538.252 3.5 0 .962-.251.175-.457-1.75-.457s-2.713.206-1.75.457" fill="#fa71ab" fill-rule="evenodd"/></svg>