<svg xmlns="http://www.w3.org/2000/svg" width="1706.667" height="853.333" viewBox="0 0 1280 640"><path d="m539.6 48.2-51 252.8-41.2 204.5 48.4.3 49-.3c.3-.2 13.2-64.3 28.8-142.2l28.9-144.2.6-2.3 47.7.5c39.4.4 49 .8 55.2 2.2 14.8 3.3 23 8.6 27.7 18.3 2.4 4.9 2.8 7 3.1 17.8.3 6.8-.1 15.3-.7 19.1l-23.6 117.9L690 504.8c0 .9 12.4 1.2 49.5 1.2 27.2 0 49.5-.3 49.5-.8 0-.4 10.6-53 23.5-116.8l25.2-126c1.2-7.3 1.7-15.6 1.7-31.4.1-24.4-1.3-32-8-45.6-12.3-24.9-42.6-41-90.4-48.1-8.1-1.2-23.4-1.7-66-2.2l-55.6-.6 13.2-64 13.8-67.3.8-3.2h-97.9l-9.7 48.2zM101 135.7c0 .8-99.4 497.4-100.5 502L0 640h98.5l7.9-39.3 13.4-66.7 5.7-27.5 60-.6c64.3-.6 68.1-.9 97.5-6.9 34.7-7.1 59.6-21.3 87.5-50.1 19.1-19.6 30.6-35.7 41.9-58.5 12.6-25.6 20.3-50.1 24.7-78.9 3.4-21.8 3.4-56 .1-72.3-10.4-51.4-41.3-84.3-91.8-97.6-23.2-6.1-19.2-5.9-136.6-6.3-59.3-.2-107.8 0-107.8.4zm160.5 81.4c5.5.5 15.2 1.9 21.5 3 36.9 6.4 46.1 12.9 52.2 37.3 1.8 7 2 10.1 1.5 25.5-1.1 37.9-12.7 79.2-29 103.6-6.3 9.4-17.2 19.5-25.8 23.8-11 5.6-33 10.8-60.9 14.4-13.5 1.7-79 3.1-79 1.6 0-1 40.5-203.5 41.5-207.6l.7-2.6 13.7-.4c18.5-.5 51.4.2 63.6 1.4zm678.6-76.9L840 639.6c0 .2 22.1.3 49.2.2l49.2-.3 13.3-66 13.3-66.7c0-.3 27.1-.8 60.3-1.1 64.7-.4 68.1-.7 97.7-6.7 34.7-7.1 60.6-22.1 88.5-51.2 23.6-24.6 39.7-50.4 51.8-82.9 14.4-38.5 20.2-88.4 14.2-122.4-9.8-56.1-45-91.6-101.9-103-21.5-4.2-29-4.5-134.2-4.5H941.2l-1.1 5.2zm164.4 77.3c25.6 2.8 46.2 7.9 54.7 13.5 5.2 3.5 10.9 11.2 13.7 18.5 6.9 18.3 4.7 55.2-5.6 91-10.7 37.6-26.3 60.8-47.8 70.9-9.8 4.7-35.6 10.4-61.5 13.6-4.7.6-23.7 1.4-42.2 1.7-32.6.5-33.8.5-33.8-1.3 0-1.1 9.4-48.5 20.8-105.4l20.8-103.5 14-.6c19.3-.9 51.4-.1 66.9 1.6z"/></svg>