<svg xmlns="http://www.w3.org/2000/svg" width="512" height="512"><path d="M233.845 108.139c-9.44 1.082-23.519 4.636-35.095 8.859-9.579 3.494-10.176 4.345-7.149 10.198l1.601 3.096 1.516-3.13c3.949-8.153 32.778-15.162 62.361-15.162 28.724 0 57.286 7.076 61.203 15.162l1.516 3.13 1.601-3.096c3.027-5.853 2.43-6.704-7.149-10.198-11.841-4.32-24.91-7.571-35.75-8.894-10.364-1.265-33.473-1.247-44.655.035M145.5 139.782c-12.32 8.198-24.162 17.734-33.089 26.646C100.373 178.445 87 194.929 87 197.749c0 1.112 1.125 2.758 2.5 3.659 2.388 1.565 2.5 1.546 2.5-.425 0-3.551 3.533-9.207 11.295-18.086 14.135-16.168 36.019-34.115 43.255-35.472 6.099-1.144 9.748 1.827 27.808 22.644C192.464 190.939 197 197.075 197 200.696c0 1.267.338 2.294.75 2.282 1.809-.054 5.428-3.793 5.105-5.274-.506-2.32-50.745-60.716-52.172-60.644-.651.033-2.983 1.258-5.183 2.722m190.317 26.755c-13.924 16.246-25.477 30.271-25.672 31.167-.323 1.481 3.296 5.22 5.105 5.274.413.012.75-1.015.75-2.282 0-3.621 4.536-9.757 22.642-30.627 18.06-20.817 21.709-23.788 27.808-22.644 7.236 1.357 29.12 19.304 43.255 35.472 7.762 8.879 11.295 14.535 11.295 18.086 0 1.971.112 1.99 2.5.425 1.375-.901 2.5-2.547 2.5-3.659 0-4.74-27.721-35.393-41.5-45.889-8.323-6.339-21.142-14.86-22.356-14.86-.555 0-12.402 13.292-26.327 29.537M58.362 240.634C50.238 258.018 32 302.939 32 305.564c0 .612 6.272 4.427 7.285 4.432.432.002.32-.866-.25-1.93-2.158-4.032-1.359-6.902 8.607-30.933 10.392-25.057 13.929-31.86 17.534-33.724 1.861-.962 4.391-1.413 6.229-1.11 5.663.934 56.603 25.918 60.75 29.796 4.966 4.644 5.034 8.186.396 20.64-1.891 5.079-5.039 14.979-6.996 22-6.176 22.162-6.515 23.088-9.245 25.236-2.871 2.258-2.845 2.462.432 3.47 2.882.885 3.457-.463 6.808-15.941 2.27-10.49 11.541-39.768 17.02-53.749 1.633-4.168 1.681-4.923.395-6.173C138.789 265.461 67.009 231 64.778 231c-1.442 0-3.025 2.377-6.416 9.634m350.709 8.264c-20.035 9.746-36.847 18.386-37.359 19.197-.65 1.03.592 5.548 4.106 14.941 6.378 17.045 11.37 33.542 14.211 46.964 2.736 12.921 3.387 14.313 6.282 13.424 3.219-.989 3.242-1.201.379-3.453-2.73-2.148-3.069-3.074-9.245-25.236-1.957-7.021-5.105-16.921-6.996-22-4.638-12.454-4.57-15.996.396-20.64 4.147-3.878 55.087-28.862 60.75-29.796 1.838-.303 4.368.148 6.229 1.11 3.605 1.864 7.142 8.667 17.534 33.724 9.966 24.031 10.765 26.901 8.607 30.933-.57 1.064-.682 1.932-.25 1.93 1.013-.005 7.285-3.82 7.285-4.432 0-2.625-18.238-47.546-26.362-64.93-3.841-8.221-4.842-9.621-6.82-9.546-1.275.049-18.711 8.063-38.747 17.81M20.896 346.75c-3.514 9.159-12.535 51.916-15.771 74.75-3.178 22.426-3.524 27.924-1.844 29.318 1.093.907 14.465 1.137 54.832.941l53.387-.259.645-26c.354-14.3 1.387-32.975 2.295-41.5 1.6-15.033 1.593-15.546-.229-17.026-1.034-.839-7.467-2.787-14.295-4.328-6.829-1.541-26.852-6.367-44.497-10.724C37.775 347.565 23.026 344 22.644 344c-.381 0-1.168 1.238-1.748 2.75M467 349.503c-11.275 2.922-31.011 7.781-43.858 10.799-12.847 3.017-24 6.128-24.785 6.913-1.237 1.236-1.208 3.49.213 16.856.902 8.486 1.931 27.129 2.285 41.429l.645 26 53.62.259c46.086.222 53.792.052 54.836-1.206 3.127-3.768-7.329-66.89-16.325-98.553-1.7-5.983-2.535-7.531-4.131-7.655-1.1-.085-11.225 2.236-22.5 5.158M26.103 360.391c-1.248 1.328-3.101 5.661-4.169 9.75-4.824 18.462-12.912 63.623-12.929 72.186-.003 1.796 1.061 3.893 2.918 5.75L14.846 451h85.308l2.767-2.768c2.765-2.764 2.769-2.786 3.453-21.25.377-10.165 1.173-24.228 1.769-31.25.849-9.993.811-13.428-.172-15.803-1.348-3.253-6.134-6.21-11.971-7.396-1.925-.391-16.274-3.821-31.887-7.622C48.5 361.11 34.066 358 32.037 358c-2.596 0-4.353.708-5.934 2.391m442.397-.328c-3.85 1.035-17.575 4.389-30.5 7.454-12.925 3.064-25.219 6.309-27.319 7.21-6.393 2.743-7.101 5.33-5.808 21.199.608 7.466 1.407 21.668 1.776 31.56.667 17.923.68 17.996 3.433 20.75l2.764 2.764h85.308l2.923-2.923c1.857-1.857 2.921-3.954 2.918-5.75-.01-5.159-4.016-30.584-7.536-47.827-6.893-33.769-8.154-36.572-16.383-36.41-2.517.05-7.726.938-11.576 1.973" fill="#611007" fill-rule="evenodd"/><path d="M234.5 113.142c-10.409 1.145-26.641 5.263-33.133 8.406-3.408 1.65-5.637 3.525-6.632 5.58-1.696 3.502-2.277 2.077 17.595 43.179l9.577 19.806 11.296-.806c14.4-1.029 32.194-1.029 46.594 0l11.296.806 9.577-19.806c19.872-41.102 19.291-39.677 17.595-43.179-4.044-8.35-33.233-15.301-62.976-14.997-7.034.072-16.389.527-20.789 1.011m-91 35.21c-4.438 2.025-18.13 12.437-25.967 19.747-9.053 8.443-21.252 22.43-23.632 27.095-3.655 7.164-4.304 6.446 26.88 29.74 15.781 11.789 29.599 21.587 30.706 21.774 2.722.459 3.071.124 10.827-10.381 7.429-10.063 22.679-25.243 30.012-29.876 5.16-3.26 5.79-5.391 3.123-10.549-2.191-4.237-36.486-44.041-39.838-46.237-3.747-2.455-8.483-2.969-12.111-1.313m215.484.48c-2.019 1.061-10.574 9.999-20.342 21.25-25.154 28.974-26.229 31.15-17.968 36.369 7.333 4.633 22.583 19.813 30.012 29.876 7.756 10.505 8.105 10.84 10.827 10.381 1.107-.187 14.925-9.985 30.706-21.774 31.184-23.294 30.535-22.576 26.88-29.74-4.358-8.542-24.007-28.67-38.547-39.486-12.153-9.04-15.451-10.092-21.568-6.876M64.768 243.509c-3.145 1.768-7.287 9.9-17.126 33.624-10.421 25.128-11.111 27.9-7.892 31.725.974 1.158 17.686 8.982 37.705 17.654l35.954 15.573 2.546-1.889c2.832-2.103 4.198-5.689 9.461-24.849 1.987-7.234 5.179-17.359 7.094-22.5 4.68-12.569 4.62-16.101-.355-20.752-4.538-4.243-55.651-29.081-61.155-29.718-2.017-.234-4.657.246-6.232 1.132m359.211 6.343c-37.548 17.89-41.749 20.086-44.355 23.183-3.567 4.24-3.386 8.393.866 19.812 1.915 5.141 5.107 15.266 7.094 22.5 5.263 19.16 6.629 22.746 9.461 24.849l2.546 1.889 35.954-15.573c20.019-8.672 36.731-16.496 37.705-17.654 3.219-3.825 2.529-6.597-7.892-31.725-12.882-31.059-15.5-35.133-22.579-35.133-1.276 0-9.736 3.533-18.8 7.852M26.103 360.391c-1.248 1.328-3.101 5.661-4.169 9.75-4.824 18.462-12.912 63.623-12.929 72.186-.003 1.796 1.061 3.893 2.918 5.75L14.846 451h85.308l2.767-2.768c2.765-2.764 2.769-2.786 3.453-21.25.377-10.165 1.173-24.228 1.769-31.25.849-9.993.811-13.428-.172-15.803-1.348-3.253-6.134-6.21-11.971-7.396-1.925-.391-16.274-3.821-31.887-7.622C48.5 361.11 34.066 358 32.037 358c-2.596 0-4.353.708-5.934 2.391m442.397-.328c-3.85 1.035-17.575 4.389-30.5 7.454-12.925 3.064-25.219 6.309-27.319 7.21-6.393 2.743-7.101 5.33-5.808 21.199.608 7.466 1.407 21.668 1.776 31.56.667 17.923.68 17.996 3.433 20.75l2.764 2.764h85.308l2.923-2.923c1.857-1.857 2.921-3.954 2.918-5.75-.01-5.159-4.016-30.584-7.536-47.827-6.893-33.769-8.154-36.572-16.383-36.41-2.517.05-7.726.938-11.576 1.973" fill="#b82211" fill-rule="evenodd"/></svg>